<?xml version="1.0" standalone="no"?><!DOCTYPE svg PUBLIC "-//W3C//DTD SVG 20010904//EN"
 "http://www.w3.org/TR/2001/REC-SVG-20010904/DTD/svg10.dtd"><svg version="1.0" xmlns="http://www.w3.org/2000/svg" width="734.000000pt" height="734.000000pt" viewBox="0 0 734.000000 734.000000" preserveAspectRatio="xMidYMid meet"><metadata>Created by potrace 1.14, written by Peter Selinger 2001-2017</metadata><g transform="translate(0.000000,734.000000) scale(0.100000,-0.100000)" fill="#000000" stroke="none"><path d="M3653 7293 c-9 -16 -23 -35 -30 -43 -20 -22 -45 -53 -73 -91 -32 -42
-242 -302 -249 -309 -3 -3 -24 -27 -46 -55 -22 -27 -100 -120 -174 -205 -75
-85 -142 -163 -151 -173 -8 -10 -24 -29 -35 -41 -11 -12 -49 -55 -85 -96 -36
-40 -78 -88 -95 -105 -16 -18 -57 -63 -90 -101 -33 -37 -69 -77 -80 -89 -21
-22 -151 -167 -201 -224 -16 -18 -42 -48 -59 -65 -16 -18 -50 -56 -75 -85 -25
-30 -52 -61 -60 -70 -36 -37 -135 -155 -239 -286 -61 -77 -116 -145 -121 -152
-13 -15 -58 -80 -122 -173 -29 -41 -58 -81 -65 -88 -7 -7 -13 -19 -13 -27 0
-7 -3 -15 -7 -17 -8 -3 -55 -77 -104 -163 -41 -73 -158 -305 -153 -305 2 0 -3
-14 -11 -30 -46 -90 -150 -430 -169 -555 -4 -22 -8 -47 -11 -55 -2 -8 -7 -35
-10 -60 -2 -25 -7 -54 -9 -66 -27 -136 -28 -572 0 -705 2 -13 7 -40 10 -59 9
-59 62 -261 87 -335 125 -359 336 -684 618 -950 35 -34 89 -81 119 -105 30
-25 63 -53 75 -63 47 -43 279 -190 392 -248 l121 -64 37 -69 c124 -234 340
-480 575 -654 47 -34 94 -69 105 -78 36 -28 228 -140 305 -178 l75 -37 -40 37
c-168 154 -225 215 -312 331 -135 183 -259 409 -356 648 -24 61 -60 156 -63
165 0 3 -4 13 -8 22 -4 9 -9 22 -10 30 -2 7 -6 20 -9 28 -15 41 -49 157 -76
260 -31 119 -33 126 -46 198 -5 28 -16 49 -30 58 -25 16 -105 121 -147 193
-30 50 -95 182 -133 267 -13 30 -28 54 -33 54 -5 0 -33 21 -62 48 -183 162
-321 335 -407 512 -31 63 -71 160 -79 190 -39 163 -47 217 -49 340 0 68 9 164
23 223 1 4 4 19 8 35 19 88 69 212 85 212 20 0 196 -112 276 -176 80 -64 239
-233 252 -268 2 -6 7 -13 10 -16 30 -25 109 -182 142 -285 12 -38 24 -77 27
-85 7 -21 9 -30 16 -75 4 -22 9 -56 13 -75 10 -63 5 -263 -10 -358 -8 -51 -13
-118 -11 -150 5 -71 38 -182 64 -213 l19 -24 2 50 c2 52 2 59 13 140 9 70 13
96 31 175 1 3 5 21 9 40 13 57 38 134 49 148 5 6 7 12 3 12 -15 0 82 211 153
330 63 106 175 253 267 349 83 87 101 121 111 216 7 66 7 76 5 152 l-2 51 -67
46 c-118 78 -236 213 -274 312 -5 16 -16 42 -23 59 -16 37 -32 90 -40 130 -4
17 -9 41 -11 55 -29 144 -18 382 26 590 27 126 24 114 53 205 29 89 39 109 53
104 33 -13 263 -233 312 -299 14 -19 31 -39 37 -45 24 -21 157 -238 157 -255
0 -6 16 -49 27 -71 4 -8 18 -55 30 -104 32 -128 32 -313 1 -422 -5 -18 -8 -33
-6 -33 7 0 -55 -143 -77 -180 -18 -30 -21 -52 -22 -143 -1 -59 1 -107 3 -107
2 0 15 10 30 23 15 12 40 31 55 42 177 125 377 311 491 455 33 41 62 77 65 80
3 3 21 30 40 60 19 30 37 57 41 60 5 5 31 50 101 180 13 25 39 81 57 124 28
66 32 88 27 130 -5 52 -41 162 -66 206 -8 14 -14 27 -15 30 -1 20 -46 60 -66
59 -38 -2 -138 11 -165 21 -13 5 -24 8 -24 5 0 -12 -184 78 -207 100 -8 8 -18
15 -22 15 -17 0 -160 152 -208 221 -99 144 -215 419 -247 585 -2 11 -9 39 -16
64 -7 25 -14 71 -16 104 l-3 58 37 -6 c35 -6 49 -8 111 -21 51 -10 201 -56
245 -74 25 -11 46 -18 46 -16 0 8 168 -80 235 -124 87 -57 220 -187 268 -263
62 -98 83 -145 117 -260 19 -68 31 -149 31 -216 0 -76 3 -88 36 -148 19 -36
38 -62 41 -59 6 6 8 13 18 85 3 25 8 54 10 65 32 149 23 587 -16 825 -6 30
-12 73 -16 95 -3 22 -13 69 -21 105 -8 36 -16 70 -17 77 -2 12 -43 63 -118
146 -120 134 -409 483 -563 681 -16 21 -37 47 -45 57 -8 10 -28 36 -44 59 -17
22 -33 40 -38 40 -4 0 -15 -12 -25 -27z"/><path d="M4590 6997 c0 -7 9 -36 19 -65 11 -28 18 -52 15 -52 -2 0 1 -12 7
-27 6 -16 13 -39 16 -53 2 -14 13 -56 23 -95 18 -69 23 -90 35 -150 3 -16 8
-36 11 -44 2 -8 7 -30 10 -50 4 -20 7 -40 9 -46 3 -17 15 -79 19 -105 2 -14 7
-41 10 -60 3 -19 8 -53 11 -75 3 -22 7 -53 10 -70 15 -97 18 -131 30 -305 13
-182 7 -515 -10 -600 -3 -14 -7 -50 -10 -80 -3 -30 -7 -66 -10 -80 -3 -14 -10
-50 -15 -80 -16 -91 -80 -295 -124 -393 l-25 -58 37 22 c101 61 130 85 155
124 15 23 60 76 100 117 128 132 274 213 437 243 54 10 179 12 229 4 25 -4 48
-5 50 -3 4 4 -96 139 -123 166 -9 9 -16 21 -16 27 0 6 -4 11 -8 11 -4 0 -24
21 -45 48 -20 26 -46 59 -59 73 -13 15 -36 44 -53 65 -16 20 -35 42 -40 48
-46 48 -87 110 -91 135 -16 120 -22 151 -51 261 -55 212 -132 407 -260 660
-46 91 -95 185 -110 210 -44 78 -176 290 -180 290 -1 0 -3 -6 -3 -13z"/><path d="M5830 4470 c-119 -41 -125 -44 -197 -76 -29 -12 -53 -20 -53 -17 0 3
-6 1 -12 -5 -20 -16 -147 -52 -208 -59 -70 -8 -192 -8 -250 0 -54 7 -168 38
-231 62 l-46 18 -88 -43 c-165 -80 -341 -209 -400 -294 -11 -15 -24 -33 -30
-40 -5 -6 -32 -38 -60 -71 -52 -63 -187 -198 -271 -274 -45 -40 -251 -196
-305 -231 -12 -8 -33 -25 -46 -37 -13 -13 -26 -23 -28 -23 -9 0 -49 -36 -154
-137 -58 -57 -98 -103 -90 -103 9 0 19 3 23 8 4 4 11 7 14 8 4 0 20 6 35 12
16 7 32 12 35 12 4 0 22 14 40 30 18 17 37 30 41 30 5 0 14 7 21 15 36 43 219
151 370 217 253 112 573 125 811 33 128 -49 319 -167 319 -196 0 -4 -19 -28
-42 -55 -213 -239 -447 -383 -713 -437 -72 -15 -320 -17 -380 -2 -16 3 -39 8
-50 9 -11 2 -27 6 -35 8 -8 3 -42 13 -75 24 -33 10 -67 21 -75 25 -8 4 -35 16
-60 28 -71 33 -149 49 -225 46 -96 -5 -120 -11 -195 -49 -62 -31 -67 -37 -106
-112 -141 -271 -199 -586 -169 -909 4 -44 9 -96 11 -115 1 -19 3 -35 4 -35 1
0 3 -9 5 -20 3 -11 10 -49 18 -85 l13 -65 19 35 c39 75 117 168 201 240 26 22
47 53 59 85 53 144 132 266 234 359 19 17 39 36 45 41 38 35 213 128 265 141
9 2 43 11 76 19 33 8 87 19 120 23 75 9 323 8 390 -1 64 -9 139 -21 145 -22 3
-1 21 -5 41 -9 l37 -8 -31 -56 c-158 -298 -410 -567 -631 -675 -135 -67 -198
-82 -341 -82 -112 0 -144 5 -229 34 -57 20 -59 20 -85 2 -86 -63 -179 -192
-208 -291 -18 -59 -21 -173 -6 -193 5 -7 22 -43 38 -82 37 -88 132 -274 152
-297 8 -9 22 -16 31 -16 10 0 49 -3 87 -8 131 -16 559 -8 635 11 8 2 38 7 65
11 28 3 59 8 70 11 11 2 29 6 40 8 22 5 55 13 83 19 94 22 297 84 347 106 11
5 54 23 95 41 135 57 380 190 444 240 6 5 61 45 121 91 340 254 634 641 789
1036 32 81 80 232 91 285 2 10 7 27 10 37 3 10 8 34 10 52 3 18 9 58 15 88 20
108 25 188 24 385 -1 185 -8 335 -19 394 -2 13 -7 45 -11 70 -4 25 -8 55 -11
66 -2 11 -6 35 -9 54 -2 19 -6 37 -9 41 -2 4 -7 22 -10 41 -11 65 -78 279
-117 374 -38 92 -106 232 -114 237 -5 2 -56 -12 -114 -32z"/></g></svg>