<svg width="130" height="130" fill="none" xmlns="http://www.w3.org/2000/svg"><g id="fluent:location-12-filled"><path id="Vector" d="M65 5.4165C77.9293 5.4165 90.3291 10.5527 99.4715 19.695C108.614 28.8374 113.75 41.2372 113.75 54.1665C113.75 74.349 98.3667 95.4957 68.25 118.083C67.3124 118.786 66.172 119.167 65 119.167C63.828 119.167 62.6876 118.786 61.75 118.083C31.6333 95.4957 16.25 74.349 16.25 54.1665C16.25 41.2372 21.3861 28.8374 30.5285 19.695C39.6709 10.5527 52.0707 5.4165 65 5.4165Z" fill="#437379"/><circle id="Ellipse 33" cx="65" cy="53" r="25" fill="white"/><g id="Group 6"><path id="Vector_2" d="M75.5935 49.0625C75.1349 49.1843 74.5846 49.367 74.0343 49.6106C72.2916 50.4022 70.8241 49.7628 70.4572 49.5801C69.7235 49.8542 68.9897 50.3414 68.3782 50.8285C67.6445 51.8638 66.6661 52.8686 65.3515 53.7821C64.5872 54.2997 63.9757 54.8478 63.4865 55.4263C63.7617 55.3045 64.0063 55.2132 64.098 55.1827C68.3477 51.6506 71.3744 54.4519 71.405 54.4824L71.5273 54.6042L71.405 54.7564C68.6534 57.9536 65.6878 56.8574 64.8623 56.4616C63.8534 55.9744 63.0279 56.3398 62.5999 56.6443C61.377 58.7148 61.4381 60.8766 61.8661 62.6731C62.1107 62.1859 62.5082 61.6683 63.0891 61.242C63.1808 60.9375 63.5171 59.8109 64.6483 59.0193C65.7795 58.258 67.3082 58.0753 69.2037 58.4407L69.4483 58.5016L69.326 58.7452C69.2954 58.8061 66.9107 63.4648 63.4559 62.0032C63.1502 62.2164 62.1413 63.0385 62.2942 64.1956C62.6305 65.0481 62.9973 65.7485 63.2419 66.1443C63.7923 66.2052 64.3731 66.2661 64.954 66.2661C71.5884 66.2661 76.9999 61.2725 76.9999 55.0914C76.9999 54.8782 76.9999 54.6955 76.9693 54.4824C76.9388 52.4119 76.419 50.6763 75.5935 49.0625Z" fill="#2B646E"/><path id="Vector_3" d="M72.1083 44.1907C71.8025 41.024 69.2344 37.3701 69.2344 37.3701C70.7325 42.2724 70.4573 45.5609 70.0293 47.3573C69.8764 47.9054 69.693 48.4839 69.4178 49.0625C69.7847 48.8189 70.0599 48.6666 70.1516 48.6057C70.8853 47.4791 71.8331 46.8397 72.9337 46.6875C73.3312 46.6266 73.7592 46.657 74.1567 46.7179C73.5452 45.8958 72.842 45.0737 72.1083 44.1907Z" fill="#2B646E"/><path id="Vector_4" d="M68.7758 40.5064C67.5834 39.1667 66.3299 37.7051 65.0459 36C58.9312 44.0385 53.428 47.1138 53.0306 54.4824C53 54.6956 53 54.8783 53 55.0914C53 59.5065 55.7516 63.3126 59.7261 65.1091C61.3465 68.4584 64.9236 69.8591 64.9236 69.8591C61.4688 67.3623 60.521 61.6988 60.521 61.6988C59.7873 61.1203 59.1758 59.6283 59.0535 59.3238C54.7121 55.8831 56.5771 52.1988 56.6076 52.1683L56.6994 51.9856L56.8828 52.077C60.5516 54.0866 60.2764 57.2837 60.093 58.2276C59.9401 59.0193 60.1541 59.6283 60.4293 60.0241C60.4904 57.984 61.2242 55.7917 63.242 53.8735C63.5172 53.234 63.4255 52.5337 63.3949 52.2597C60.0624 50.4936 61.9274 45.5914 61.958 45.5305L62.0497 45.2869L62.2637 45.4696C66.2076 48.6667 64.5567 51.5898 64.2204 52.077C64.251 52.4119 64.251 52.7469 64.2204 53.0513C64.3732 52.9295 64.4955 52.8382 64.6484 52.7164C66.6662 51.3158 67.8586 49.6106 68.5006 47.9055C68.4701 47.1747 68.0726 46.5353 67.9197 46.3222C64.2204 46.383 63.5783 41.1459 63.5478 41.085L63.5783 40.8718L63.8535 40.9327C68.8064 41.8462 68.6841 45.226 68.6229 45.8045C68.7758 46.0177 68.8981 46.2613 68.9898 46.4744C69.479 44.0994 69.1121 41.8766 68.7758 40.5064Z" fill="#B99367"/></g></g></svg>